<?xml version="1.0" encoding="utf-8" ?>
<svg xmlns="http://www.w3.org/2000/svg" xmlns:xlink="http://www.w3.org/1999/xlink" width="1024" height="1024">
	<path fill="#E2E2E2" d="M0 0L1024 0L1024 1024L0 1024L0 0Z"/>
	<path d="M509.884 461.71C517.72 461.171 525.774 461.895 533.445 463.538C566.478 470.615 592.745 496.444 607.595 525.792C611.242 532.999 613.788 540.723 617.138 548.066C621.934 558.576 628.615 568.731 635.905 577.705C651.829 597.308 674.604 609.135 688.41 630.652Q688.986 631.565 689.54 632.492Q690.093 633.42 690.624 634.36Q691.155 635.3 691.662 636.253Q692.17 637.206 692.654 638.172Q693.138 639.137 693.599 640.113Q694.059 641.09 694.496 642.078Q694.932 643.065 695.345 644.063Q695.757 645.061 696.144 646.069Q696.532 647.077 696.895 648.094Q697.258 649.111 697.596 650.136Q697.935 651.162 698.248 652.195Q698.561 653.229 698.848 654.27Q699.136 655.311 699.398 656.358Q699.66 657.406 699.896 658.459Q700.133 659.513 700.344 660.572Q700.554 661.631 700.739 662.695Q700.924 663.759 701.083 664.827Q701.241 665.895 701.374 666.966Q701.506 668.038 701.613 669.113Q701.719 670.187 701.799 671.264Q701.879 672.341 701.933 673.419Q701.987 674.498 702.014 675.577Q702.042 676.657 702.043 677.736Q702.044 678.816 702.019 679.896Q701.994 680.975 701.942 682.054Q701.89 683.132 701.812 684.209Q701.734 685.286 701.63 686.361Q701.526 687.436 701.395 688.508Q701.265 689.58 701.108 690.648Q700.952 691.717 700.769 692.781Q700.586 693.845 700.378 694.905Q700.169 695.964 699.935 697.018Q699.691 698.069 699.421 699.114Q699.152 700.158 698.856 701.196Q698.561 702.234 698.24 703.264Q697.919 704.294 697.573 705.315Q697.227 706.337 696.856 707.35Q696.484 708.363 696.088 709.367Q695.692 710.37 695.272 711.364Q694.851 712.357 694.406 713.34Q693.961 714.323 693.492 715.294Q693.023 716.266 692.53 717.226Q692.037 718.185 691.52 719.132Q691.004 720.08 690.464 721.014Q689.924 721.948 689.362 722.869Q688.799 723.789 688.214 724.696Q687.629 725.602 687.022 726.494Q686.415 727.386 685.786 728.263Q685.157 729.139 684.507 730Q683.856 730.861 683.185 731.705Q682.514 732.55 681.821 733.377Q681.129 734.205 680.417 735.015Q679.705 735.826 678.973 736.618Q678.241 737.411 677.49 738.185Q676.739 738.96 675.968 739.715Q675.198 740.471 674.41 741.207Q673.621 741.943 672.815 742.66Q672.008 743.377 671.185 744.073Q670.361 744.77 669.52 745.446Q668.679 746.122 667.822 746.777Q666.965 747.432 666.092 748.066Q665.219 748.7 664.33 749.312Q663.442 749.924 662.539 750.514Q661.635 751.104 660.718 751.672Q658.173 753.254 655.527 754.658Q652.88 756.062 650.144 757.283Q647.407 758.504 644.594 759.535Q641.781 760.566 638.904 761.404Q636.027 762.241 633.1 762.879Q630.173 763.518 627.209 763.956Q624.245 764.394 621.258 764.629Q618.271 764.863 615.275 764.894Q611.931 764.925 608.596 764.69Q605.26 764.456 601.953 763.958Q598.647 763.459 595.39 762.701Q592.133 761.942 588.947 760.927Q585.594 759.894 582.355 758.546Q579.116 757.199 576.02 755.549Q572.924 753.899 569.999 751.962Q567.074 750.025 564.347 747.819C548.224 734.727 536.377 713.501 514.931 708.517C489.009 707.038 470.845 741.381 450.554 754.158C440.566 760.448 428.117 763.956 416.421 764.946Q415.356 765.034 414.289 765.096Q413.222 765.158 412.153 765.194Q411.085 765.23 410.016 765.24Q408.948 765.249 407.879 765.232Q406.81 765.216 405.742 765.173Q404.674 765.13 403.608 765.06Q402.541 764.991 401.477 764.896Q400.412 764.8 399.35 764.679Q398.288 764.557 397.23 764.409Q396.171 764.262 395.116 764.088Q394.062 763.914 393.012 763.715Q391.962 763.515 390.917 763.29Q389.872 763.065 388.833 762.814Q387.794 762.563 386.762 762.287Q385.729 762.01 384.704 761.709Q383.678 761.407 382.661 761.08Q381.643 760.753 380.634 760.402Q379.624 760.05 378.624 759.673Q377.624 759.297 376.633 758.896Q375.642 758.495 374.661 758.07Q373.681 757.645 372.711 757.196Q371.741 756.747 370.782 756.274Q369.824 755.801 368.877 755.305Q367.93 754.809 366.996 754.289Q366.062 753.77 365.141 753.228Q364.22 752.686 363.312 752.121Q362.405 751.556 361.511 750.969Q360.618 750.383 359.739 749.774Q358.861 749.165 357.997 748.535Q357.134 747.905 356.286 747.254Q355.438 746.603 354.607 745.932Q353.776 745.26 352.961 744.568C334.985 729.181 324.534 708.011 322.722 684.455Q322.628 683.285 322.565 682.113Q322.502 680.941 322.47 679.767Q322.438 678.594 322.437 677.42Q322.436 676.246 322.467 675.073Q322.497 673.899 322.558 672.727Q322.62 671.555 322.712 670.385Q322.805 669.214 322.928 668.047Q323.051 666.88 323.206 665.716Q323.36 664.552 323.545 663.393Q323.73 662.234 323.946 661.08Q324.161 659.926 324.408 658.779Q324.654 657.631 324.93 656.49Q325.207 655.349 325.514 654.216Q325.82 653.083 326.157 651.959Q326.494 650.834 326.86 649.719Q327.226 648.604 327.622 647.499Q328.018 646.394 328.442 645.299Q328.867 644.205 329.321 643.122Q329.775 642.04 330.257 640.97Q330.739 639.899 331.25 638.842Q331.76 637.785 332.298 636.742Q332.837 635.699 333.402 634.671Q333.968 633.642 334.561 632.629Q335.154 631.616 335.773 630.619Q336.392 629.622 337.038 628.641Q337.684 627.661 338.355 626.698Q339.026 625.735 339.723 624.79Q340.42 623.846 341.141 622.92Q341.863 621.994 342.608 621.087Q343.354 620.181 344.124 619.294Q344.893 618.408 345.686 617.542Q346.479 616.676 347.294 615.832C353.384 609.513 360.495 604.059 367.094 598.281C378.391 588.392 388.924 577.128 397.24 564.596C411.095 543.716 413.106 523.163 430.59 502.916C451.208 479.04 478.396 464.065 509.884 461.71Z"/>
	<path fill="#E2E2E2" d="M466.319 517.593C475.582 516.898 483.917 518.102 492.021 522.876C503.812 529.823 508.633 540.65 511.944 553.383C513.574 546.726 516.335 540.039 520.36 534.465Q520.944 533.646 521.567 532.857Q522.19 532.067 522.851 531.309Q523.512 530.551 524.209 529.827Q524.907 529.102 525.639 528.413Q526.371 527.724 527.137 527.071Q527.902 526.419 528.699 525.805Q529.495 525.191 530.321 524.617Q531.146 524.042 531.999 523.509Q532.852 522.977 533.73 522.486Q534.608 521.996 535.509 521.549Q536.411 521.103 537.332 520.701Q538.254 520.299 539.195 519.943Q540.136 519.587 541.093 519.278Q542.05 518.969 543.021 518.707Q543.992 518.445 544.974 518.231Q545.957 518.017 546.949 517.852Q547.896 517.704 548.849 517.603Q549.802 517.502 550.759 517.448Q551.716 517.394 552.675 517.387Q553.634 517.38 554.591 517.42Q555.549 517.46 556.503 517.547Q557.458 517.635 558.407 517.769Q559.356 517.903 560.298 518.083Q561.239 518.264 562.171 518.49Q563.102 518.717 564.021 518.989Q564.94 519.261 565.845 519.578Q566.749 519.895 567.637 520.256Q568.525 520.617 569.394 521.021Q570.263 521.426 571.112 521.872Q571.96 522.319 572.785 522.807Q573.61 523.294 574.41 523.822Q575.211 524.35 575.984 524.916Q576.812 525.533 577.608 526.192Q578.404 526.85 579.167 527.547Q579.929 528.244 580.656 528.978Q581.382 529.712 582.071 530.482Q582.76 531.251 583.41 532.054Q584.06 532.857 584.669 533.692Q585.277 534.526 585.844 535.39Q586.41 536.254 586.933 537.145Q587.455 538.036 587.933 538.952Q588.41 539.868 588.841 540.807Q589.272 541.745 589.656 542.704Q590.04 543.663 590.375 544.64Q590.71 545.617 590.996 546.61Q591.282 547.602 591.519 548.608Q591.755 549.614 591.941 550.63Q592.126 551.646 592.261 552.67C595.539 576.69 580.319 589.226 565.459 605.123Q553.216 617.993 542.394 632.079C530.315 648.304 520.643 665.199 512.079 683.51C504.26 663.871 491.771 645.151 478.671 628.663C473.115 621.67 467.249 614.745 461.126 608.238C449.864 596.27 436.362 585.545 432.669 568.691C430.227 557.547 432.051 545.164 438.305 535.541C444.925 525.355 454.667 520.014 466.319 517.593Z"/>
	<path d="M409.762 260.16C424.302 259.099 438.117 263.273 450.187 271.358C476.477 288.967 492.987 319.536 498.928 350.086C504.202 377.205 502.245 407.522 486.267 430.928C477.234 444.16 464.746 453.512 448.918 456.489C432.527 458.957 416.005 454.505 402.608 444.861C377.238 426.597 362.309 393.135 357.561 362.911C353.406 336.453 357.013 304.927 373.303 282.873C382.32 270.665 394.641 262.382 409.762 260.16Z"/>
	<path d="M605.507 260.207C618.585 259.03 631.257 264.525 641.239 272.619C657.62 285.902 665.633 309.238 667.678 329.587C671.175 364.375 660.76 400.654 638.392 427.692C624.793 444.132 607.544 455.337 586.123 457.337C573.35 458.158 560.983 453.853 551.172 445.728C534.036 431.537 525.729 409.05 523.784 387.364C520.76 353.655 529.815 317.543 551.852 291.374C565.592 275.057 583.754 262.05 605.507 260.207Z"/>
	<path d="M710.276 415.187Q711.309 415.085 712.346 415.03Q713.383 414.974 714.421 414.965Q715.459 414.956 716.497 414.994Q717.535 415.031 718.569 415.115Q719.604 415.199 720.634 415.33Q721.664 415.46 722.688 415.636Q723.711 415.813 724.725 416.035Q725.739 416.257 726.743 416.524Q727.746 416.791 728.736 417.103Q729.726 417.415 730.702 417.771Q731.677 418.127 732.635 418.527Q733.594 418.926 734.533 419.368Q735.473 419.81 736.392 420.294Q737.31 420.777 738.207 421.301Q739.103 421.826 739.975 422.39Q740.846 422.954 741.692 423.556C755.874 433.798 763.644 451.432 766.255 468.321C770.575 496.266 762.824 526.913 746.056 549.634C733.972 566.007 717.561 577.813 697.276 580.963C684.561 581.456 673.919 579.198 663.694 571.223C648.845 559.642 641.35 540.516 639.226 522.283C635.999 494.566 645.22 465.84 662.434 444.115C674.779 428.535 690.277 417.58 710.276 415.187Z"/>
	<path d="M307.872 415.219C322.757 414.585 337.142 420.618 348.434 430.073C370.292 448.376 382.021 476.635 384.353 504.68C386.094 525.607 382.154 549.422 368.031 565.75C359.591 575.506 348.598 580.557 335.851 581.526C320.807 581.777 306.772 575.717 295.221 566.302C274.422 549.349 260.772 521.096 258.255 494.589C256.187 472.819 259.604 449.835 274.009 432.583C282.802 422.053 294.295 416.377 307.872 415.219Z"/>
</svg>
